PathFileType	4	(X/Y/Z)	Kaydara	
DataRate	CameraRate	NumFrames	NumMarkers	Units	OrigDataRate	OrigDataStartFrame	OrigNumFrames	
240.00	240.00	4	72	mm	240.00	222	355	
Frame#	Time	Hips			RightUpLeg			RightLeg			RightFoot			RightFoot_End			LeftUpLeg			LeftLeg			LeftFoot			LeftFoot_End			Spine			Spine1			Spine2			Spine3			Neck			Head			Head_End			RightShoulder			RightArm			RightForeArm			RightHand			RightHandThumb1			RightHandThumb2			RightHandThumb3			RightHandThumb3_End			RightInHandIndex			RightHandIndex1			RightHandIndex2			RightHandIndex3			RightHandIndex3_End			RightInHandMiddle			RightHandMiddle1			RightHandMiddle2			RightHandMiddle3			RightHandMiddle3_End			RightInHandRing			RightHandRing1			RightHandRing2			RightHandRing3			RightHandRing3_End			RightInHandPinky			RightHandPinky1			RightHandPinky2			RightHandPinky3			RightHandPinky3_End			LeftShoulder			LeftArm			LeftForeArm			LeftHand			LeftHandThumb1			LeftHandThumb2			LeftHandThumb3			LeftHandThumb3_End			LeftInHandIndex			LeftHandIndex1			LeftHandIndex2			LeftHandIndex3			LeftHandIndex3_End			LeftInHandMiddle			LeftHandMiddle1			LeftHandMiddle2			LeftHandMiddle3			LeftHandMiddle3_End			LeftInHandRing			LeftHandRing1			LeftHandRing2			LeftHandRing3			LeftHandRing3_End			LeftInHandPinky			LeftHandPinky1			LeftHandPinky2			LeftHandPinky3			LeftHandPinky3_End			
		X1	Y1	Z1	X2	Y2	Z2	X3	Y3	Z3	X4	Y4	Z4	X5	Y5	Z5	X6	Y6	Z6	X7	Y7	Z7	X8	Y8	Z8	X9	Y9	Z9	X10	Y10	Z10	X11	Y11	Z11	X12	Y12	Z12	X13	Y13	Z13	X14	Y14	Z14	X15	Y15	Z15	X16	Y16	Z16	X17	Y17	Z17	X18	Y18	Z18	X19	Y19	Z19	X20	Y20	Z20	X21	Y21	Z21	X22	Y22	Z22	X23	Y23	Z23	X24	Y24	Z24	X25	Y25	Z25	X26	Y26	Z26	X27	Y27	Z27	X28	Y28	Z28	X29	Y29	Z29	X30	Y30	Z30	X31	Y31	Z31	X32	Y32	Z32	X33	Y33	Z33	X34	Y34	Z34	X35	Y35	Z35	X36	Y36	Z36	X37	Y37	Z37	X38	Y38	Z38	X39	Y39	Z39	X40	Y40	Z40	X41	Y41	Z41	X42	Y42	Z42	X43	Y43	Z43	X44	Y44	Z44	X45	Y45	Z45	X46	Y46	Z46	X47	Y47	Z47	X48	Y48	Z48	X49	Y49	Z49	X50	Y50	Z50	X51	Y51	Z51	X52	Y52	Z52	X53	Y53	Z53	X54	Y54	Z54	X55	Y55	Z55	X56	Y56	Z56	X57	Y57	Z57	X58	Y58	Z58	X59	Y59	Z59	X60	Y60	Z60	X61	Y61	Z61	X62	Y62	Z62	X63	Y63	Z63	X64	Y64	Z64	X65	Y65	Z65	X66	Y66	Z66	X67	Y67	Z67	X68	Y68	Z68	X69	Y69	Z69	X70	Y70	Z70	X71	Y71	Z71	X72	Y72	Z72	

222	0.921	3921.0129	906.651	56.2195	3952.9480360637162	872.5791616432286	-11.76395948614316	3880.3326265296214	465.633398462895	-74.31582257874729	3941.1513690252536	100.44563603615606	-180.0199873713961	3867.613865982356	21.661622564544324	-22.193278051721506	3896.2017800034578	911.8683116908319	135.98542614901527	3839.961869432913	510.2417190782979	239.7259108406495	3767.4873528144853	79.72210264226443	292.1936356964091	3644.0518634686896	-5.178879671365095	174.08529666758594	3887.891318588601	1036.088386242943	5.514842088124158	3839.320513005022	1107.4438351034526	-38.53344047950625	3783.178007138937	1176.5576098632985	-85.46440656709885	3721.4318232039805	1233.7561950788477	-132.04370014252953	3654.8082123420777	1294.6535493010763	-181.13102070657294	3593.255721448305	1350.1806566192658	-224.7055328270385	3470.167584283615	1442.103697346779	-265.3756498504102	3685.328962147342	1265.9299653216967	-185.56357490368734	3699.816927617262	1232.4836755785475	-263.8404861284504	3703.7134095511738	1036.6410251295529	-195.47074380379746	3696.7789811199546	928.4966563338602	-218.9128744925797	3704.7161257018242	937.6674646639303	-232.78064802359972	3699.750276372406	935.3943747731531	-239.52052952363502	3695.6328008439273	931.0938975961637	-242.6839367152494	3691.6362632808127	925.1840247598977	-244.01204623684453	3704.312037588006	929.1319785581222	-229.00190816819153	3708.0478912659974	918.4441911147599	-236.86346962965513	3704.0724946221467	909.0589571927993	-240.01379388606398	3698.2389956338116	905.1981113544491	-241.33508674707133	3691.142838358611	903.3339761243425	-241.99886785753142	3702.0764083468584	922.0202462808894	-224.45595759727118	3704.5128712747105	907.7495138124921	-229.66564396396035	3699.859605263429	896.6022157565562	-232.475046818106	3692.6703813530958	891.5094203425489	-233.76766854008164	3684.8323357194527	889.2583356537492	-234.34740934810003	3700.4648005473164	917.2684253721964	-221.05875401597655	3701.4342667875303	900.3537393250929	-222.82290074703886	3697.0516387715434	889.7340343210851	-224.6210967195163	3689.9434923224167	884.3417287642808	-225.52248523828578	3682.491498508989	881.9977300533055	-225.9038856713886	3698.001254530599	912.102240443216	-216.79639115088654	3697.584941577251	893.3994190882227	-215.84001422417538	3693.5609168242568	883.5594753021612	-216.25730219146692	3688.1272853707474	878.9800007899589	-216.42009129534128	3681.382774067893	876.5316448667925	-216.4732513033111	3668.6736318997077	1283.7846995456648	-143.07164849216116	3656.0577244369765	1277.6593105717957	-53.09018197441898	3721.0400580292885	1077.803450876906	-114.05310064406723	3738.0864806744703	926.15280318539	-155.69816375933772	3727.939239147919	936.7625916273173	-166.2894232671564	3724.7273183422767	928.0006450356002	-179.68103311466675	3723.3348516115157	918.7833937069753	-188.51423377866158	3722.8963023677243	908.4342022946881	-195.456585194123	3729.4417946673966	927.6287220139781	-165.22436049870706	3721.930655997081	913.7347388157318	-179.12752426620347	3719.871687532048	898.4002316776673	-190.24784521010858	3720.2256387460156	889.3728010482358	-197.27708021597778	3721.6207963199718	882.242128825606	-203.17324728177314	3732.1502099100635	919.3695505613504	-163.46902629410317	3726.288149357414	901.3520024228604	-176.0798795729943	3724.4270935997874	883.5672151980305	-187.93945663725535	3725.0392087122464	872.1712325359749	-196.28805183748366	3726.655743765813	864.123621701529	-202.67539470175612	3734.2272320748325	913.9233970051312	-161.858968440567	3730.6943224165643	893.1490596715706	-171.71890380837874	3729.47598350552	876.6007525389898	-181.75506755664884	3730.280843375906	865.0523956469148	-189.64826868938675	3731.9024072174807	857.2221272476858	-195.5783090652046	3737.0604261791077	907.7779508618513	-159.7196694461337	3735.4698532603993	885.0461466736576	-167.39800147742122	3735.1397840006107	870.2517463555992	-174.92259758892212	3736.039119369076	861.0818624024326	-180.43226373879273	3737.6552738092137	853.7159198767748	-185.5427783222791
223	0.925	3921.0129	906.651	56.2195	3952.628195859843	872.4799580874449	-11.848404583839821	3880.227729958974	465.4701033471606	-74.22353389204726	3941.6076668693026	100.45675855950314	-180.2508770980922	3868.0716715586386	21.65412603404839	-22.432114241627925	3896.5069910769475	911.9592756279792	136.05974700806362	3840.542234787317	510.33737125683194	239.96607640361773	3767.668444707436	79.8383658242353	292.11251704154915	3644.315270172123	-5.1399955239346875	173.97461011253716	3887.9649594927682	1036.1287966374746	5.5641359289378265	3839.408746100583	1107.5279094768025	-38.43167507203061	3783.2661236029753	1176.6828141107053	-85.30088771565838	3721.4871360508023	1233.9023998317618	-131.8017877709494	3654.825672176011	1294.8190760584966	-180.80316165952527	3593.2427040384955	1350.3688179660367	-224.294335203798	3470.1179151691376	1442.2930987480602	-264.8350948129303	3685.19577626711	1265.9511539670166	-185.25539934571194	3698.2058691643147	1231.3124015946362	-262.6236642398159	3701.9712847735573	1036.3010708071859	-193.4951442797491	3694.3386117267387	929.1233516762937	-216.14094525978945	3702.193275596709	938.4186408997842	-229.99680170182327	3697.251167022333	936.2268009105217	-236.5000549211628	3693.1570006352276	931.9827084284378	-239.4856727742908	3689.185692051322	926.1196720662333	-240.65444419808662	3701.7959490813105	929.9005019914584	-226.18850860999424	3705.4843642414053	919.3999988332763	-233.85986061429716	3701.529168402942	910.1096540170028	-236.7808794534354	3695.7355985194285	906.2739751468708	-237.93175435383455	3688.690952554042	904.4078538568834	-238.43568873180106	3699.582930338758	922.7800289546868	-221.6092082577576	3701.9853386196937	908.687249990142	-226.61535878418135	3697.357319554734	897.6416899031159	-229.1706393237094	3690.217805884923	892.5783908590945	-230.25578418334936	3682.436870220408	890.3247120820362	-230.6597127308537	3697.9880023490077	918.0176494970576	-218.19415837864062	3698.939948893279	901.2544374923489	-219.76292480545501	3694.5826599335137	890.7212778269595	-221.3359472752342	3687.5242335809207	885.3562927679322	-222.0352537012533	3680.126776601658	883.0093188771923	-222.2504204510132	3695.549036825965	912.8307505937465	-213.9099509550937	3695.1300971219694	894.2554792154144	-212.76373464397543	3691.1316444718996	884.4808514628047	-212.99581691434267	3685.736833946724	879.919376376347	-213.00883860175927	3679.042103588126	877.4672751837779	-212.91337986745464	3668.876258070198	1284.0861243494764	-142.78724504678794	3656.847875641587	1278.5873671967702	-52.793860073826714	3721.532673990168	1078.591302392849	-113.0093041177213	3737.582316951022	926.8627631569419	-153.28965690337893	3727.5160050590453	937.5756445120287	-163.77173780921842	3724.309240302975	928.8940564372099	-176.973695501404	3722.9224619741835	919.7314629438554	-185.68590716787486	3722.4904495947526	909.4267224696991	-192.53687838022122	3729.043505994736	928.4503060455004	-162.74663087919666	3721.6586441719346	914.7058579066482	-176.5407791847514	3719.6341362212806	899.4554032326837	-187.53055784431666	3719.9686841498556	890.4587032456885	-194.44805140238861	3721.320241889124	883.3389481357501	-200.23110076645295	3731.750693170357	920.1814331630677	-161.0226413406613	3726.011150052507	902.3044950437757	-173.5441345097239	3724.1870590200047	884.6096355310943	-185.26568498373587	3724.775458322308	873.2498696605426	-193.48158969050473	3726.3441383300083	865.2137861560853	-199.7461926611245	3733.8242064877404	914.7248338990294	-159.43811665806822	3730.399751251829	894.0681001657254	-169.24190435151394	3729.2127791854327	877.5961207536276	-179.1624170349509	3729.9943106187916	866.0816068459509	-186.93009873916415	3731.5706640214335	858.2616604098852	-192.7459034876024	3736.6451192541813	908.5612488298198	-157.3266302187867	3735.1484400140907	885.9269283842068	-164.97260868234318	3734.8416816135864	871.189929876952	-172.4120954260201	3735.723127224064	862.042932245023	-177.8338348841294	3737.2987297190502	854.6850980611976	-182.84524316478763
224	0.929	3921.0129	906.651	56.2195	3952.318238242937	872.3809968275195	-11.923288933426885	3880.091394671651	465.318076140568	-74.13196950111707	3942.0161885656166	100.46441251663576	-180.4506638118016	3868.4837259997976	21.63882176981666	-22.641106891450097	3896.8016621540737	912.0507457469429	136.12689115437408	3841.138671003819	510.43888982559287	240.23878920443696	3767.878415299126	79.96029865608165	292.0717170101107	3644.608759906032	-5.096620507297383	173.90384202203634	3888.041298294804	1036.1658395655347	5.602481790294276	3839.496928728545	1107.6063478399008	-38.34141996155103	3783.351215543711	1176.8010217652459	-85.1473979917849	3721.537295502369	1234.0433350525557	-131.56550479983107	3654.8361829173887	1294.9811116775766	-180.47678185086298	3593.2214241278116	1350.5547906933966	-223.88150690260798	3470.06366901404	1442.4773811090902	-264.3074699655461	3685.059242752396	1265.974698391204	-184.94753055749817	3696.643042153283	1230.1929094146149	-261.43101379950343	3700.2854502781674	1036.0114751031392	-191.54106751541784	3692.071979124012	929.773063495928	-213.40266761452563	3699.8518040908593	939.2028479691036	-227.2381133932495	3694.9561930164155	937.0898261068008	-233.5158017476233	3690.901764590461	932.8986175060976	-236.33508461968435	3686.969877999524	927.0779530941917	-237.35727480323547	3699.462821879024	930.6973062024343	-223.41211654405737	3703.1252540644173	920.3819221808768	-230.91581834738116	3699.211606082455	911.18063467147	-233.62757426095007	3693.4726203292753	907.365763170021	-234.6180707640238	3686.4925490015735	905.4935524156891	-234.9688351628767	3697.273552088337	923.5630466587074	-218.80908646251385	3699.663446737293	909.643381428232	-223.638906999864	3695.084057094159	898.6925314283035	-225.9631371726655	3688.0119769900266	893.6531504194884	-226.85349413222838	3680.302465623714	891.3922327171146	-227.08919628566105	3695.6955036361255	918.7866307593815	-215.38239604199063	3696.649241854383	902.1676289753418	-216.78550692978305	3692.3377295322653	891.7142176015973	-218.1546509844458	3685.346149248873	886.3708156455818	-218.66474434192702	3678.016702576959	884.0163302729817	-218.72110835644148	3693.2811767894527	913.574822671555	-211.08296198754513	3692.877173986054	895.1179581796664	-209.77820617392788	3688.9206646496505	885.4021873854521	-209.8438549150671	3683.5771694659793	880.8540352339835	-209.71732792276543	3676.944156930755	878.3938873916446	-209.4803118923904	3669.069251447333	1284.3767092158957	-142.50820228114574	3657.6228846937956	1279.479352753653	-52.52084235180732	3722.020921320714	1079.3544645171546	-111.9941479360122	3737.071641316145	927.5456596830612	-150.8236754561486	3727.083923420566	938.3210522532332	-161.1997227236879	3723.9090094334715	929.6912055700221	-174.20879788273692	3722.5501459261905	920.5660494875443	-182.79596148012544	3722.1463103391684	910.2937211048139	-189.5506206219327	3728.64747777444	929.2092358596227	-160.20843477333477	3721.423204496719	915.5742857503519	-173.88201897509865	3719.4661824121963	900.3853371889047	-184.73289244585933	3719.8012556685107	891.4091689177272	-191.53563646060678	3721.1253016318633	884.294464671652	-197.2045561498007	3731.36256735075	920.939674482284	-158.51125483816847	3725.783944358333	903.1691690440263	-170.92967085777812	3724.033960188362	885.540960493172	-182.5035078154005	3724.623217059221	874.2057429011545	-190.58282347736414	3726.1619029657354	866.1750773196519	-196.7234483693803	3733.4380846834592	915.4799745600435	-156.94934321581238	3730.161103606609	894.9164613955923	-166.68212352749268	3729.0389410593257	878.5019309873172	-176.47798997537964	3729.821414954495	867.0107533695627	-184.11609864032766	3731.369620872193	859.1957391533961	-189.81636465676127	3736.252566537848	909.3082245504398	-154.86272350960678	3734.888978536231	886.7550114450562	-162.46086308965076	3734.6338094690427	872.06260283492	-169.80724113211974	3735.515793612149	862.9319431272446	-175.13771197939403	3737.066376398639	855.5780846868491	-180.048637959832
225	0.933	3921.0129	906.651	56.2195	3952.0119829565065	872.2785556655298	-11.991366148290608	3879.9134524386723	465.1737958832659	-74.04227011036532	3942.369204640651	100.46518431090499	-180.61942419996083	3868.8428338279446	21.612366971982766	-22.820078906317573	3897.092014712149	912.1466514205739	136.1900509366633	3841.7435975774024	510.55034068206885	240.53954723164946	3768.114745539914	80.09133755690681	292.0689824997745	3644.9299926071644	-5.046064621159697	173.87107649408574	3888.120304357938	1036.1987075811576	5.6280423374594335	3839.5837906530905	1107.6777921323282	-38.264063931807364	3783.4311589905133	1176.9107228584674	-85.00457079534485	3721.580473835347	1234.1785702146876	-131.33460698636452	3654.83829268818	1295.1404017741834	-180.15075445152786	3593.190776186283	1350.7403268649684	-223.46520842464002	3470.0037326081565	1442.6584961276048	-263.79073871282344	3684.918748987264	1266.0025195373905	-184.63882345991138	3695.1863002073014	1229.1825933342902	-260.2911931046526	3698.7218589196145	1035.8282631875957	-189.6362840865824	3690.056588181808	930.500160397412	-210.7229245319378	3697.774665264177	940.0764283383837	-224.52704301640944	3692.9522518184576	938.0385818731196	-230.59552805390126	3688.95609113892	933.8957391620611	-233.26419626105798	3685.079019059624	928.1119854453899	-234.15661148336932	3697.393819246558	931.5785915671496	-220.69640691225328	3701.054825925893	921.4470162667934	-228.0580327432714	3697.206113045811	912.3279461031142	-230.5860249580303	3691.5378547027776	908.5280910239874	-231.43071516557058	3684.63680148608	906.6439599789013	-231.63950695725177	3695.227568387336	924.4249209116665	-216.0808894581019	3697.628505291952	910.6740506857079	-220.76540312210886	3693.1230970471734	899.8097016268505	-222.88781773074345	3686.1378461655227	894.7868945201488	-223.60164414201296	3678.515523667836	892.5121839988186	-223.6817007863397	3693.665197546022	919.6305752049839	-212.64980374227318	3694.640620809449	903.1486709282519	-213.92122024017485	3690.3967737557577	892.767097271978	-215.1133599277014	3683.4906375721584	887.4377931863818	-215.4525905427425	3676.2439714393504	885.0694439149918	-215.36233152906394	3691.2738811138715	914.3890385201945	-208.3431059456054	3690.901865940854	896.0412432397862	-206.91572644998988	3687.0044162181	886.3768469325933	-206.83848657368907	3681.725602866613	881.8360026287959	-206.58677541220425	3675.167277706186	879.3618613024084	-206.2195551525873	3669.2500006172518	1284.6551718400503	-142.23396504760663	3658.3798172956	1280.3332305595536	-52.27160539596385	3722.499267054574	1080.087173877312	-111.00415339812442	3736.538408861633	928.208054028498	-148.3228754115474	3726.624092395136	939.0071167127273	-158.59576840097495	3723.507204060408	930.4008720370138	-171.40862325832734	3722.1983895700723	921.2959753308922	-179.8661527777099	3721.844524609791	911.043807139705	-186.51874187778162	3728.2353182731445	929.9129892649083	-157.63033385783962	3721.204203318631	916.3475772547871	-171.16772220296113	3719.3475212066273	901.1973377505956	-181.86946621829088	3719.70342872108	892.2314098625851	-188.55451850596134	3721.016694121406	885.1158565306299	-194.10917614486416	3730.9682845818274	921.6509455354868	-155.95438737736168	3725.587741544921	903.9523343417135	-168.2514632313139	3723.9489378180288	886.3671193556377	-179.66574573820083	3724.5641412406526	875.0446186375979	-187.60459435783488	3726.0914253209294	867.0131997299526	-193.62093674615323	3733.0519502831235	916.1949192538619	-154.41152363318687	3729.9608706645495	895.6994280945236	-164.0537626780346	3728.937023513035	879.3230272936128	-173.71399195541534	3729.745273423095	867.8444643370534	-181.21843096747915	3731.2831133963355	860.0289070348053	-186.802703356111	3735.86670205485	910.0243087067555	-152.34630775732836	3734.6753524565097	887.5346698280163	-159.8764698556911	3734.5002963079396	872.873519984076	-167.11997764766807	3735.4017517715574	863.7524125644112	-172.35572723622607	3736.943537774339	856.3982751682911	-177.16550060957178
